<svg xmlns="http://www.w3.org/2000/svg" width="1152" height="648" viewBox="0 0 1152 648">
<defs>
<linearGradient id="hi" x1="0" y1="0" x2="0" y2="1">
<stop offset="0" stop-color="#12508f"/><stop offset="0.55" stop-color="#6fb9e0"/><stop offset="1" stop-color="#d8ecf6"/>
</linearGradient>
<linearGradient id="hisea" x1="0" y1="0" x2="0" y2="1">
<stop offset="0" stop-color="#2b6f9c"/><stop offset="1" stop-color="#08243f"/>
</linearGradient>
<radialGradient id="sunb" cx="0.5" cy="0.5" r="0.5">
<stop offset="0" stop-color="#ffffff" stop-opacity="0.9"/><stop offset="1" stop-color="#ffffff" stop-opacity="0"/>
</radialGradient>
</defs>
<rect width="1152" height="430" fill="url(#hi)"/>
<circle cx="960" cy="120" r="190" fill="url(#sunb)"/>
<circle cx="960" cy="120" r="44" fill="#ffffff" opacity="0.92"/>
<g fill="#ffffff" opacity="0.5">
<ellipse cx="190" cy="128" rx="134" ry="24"/><ellipse cx="286" cy="152" rx="88" ry="16"/>
<ellipse cx="690" cy="80" rx="112" ry="18"/><ellipse cx="470" cy="196" rx="96" ry="15"/>
</g>
<rect y="430" width="1152" height="218" fill="url(#hisea)"/>
<path d="M0 430 L104 392 L188 414 L268 430 Z" fill="#0a2440"/>
<path d="M300 430 L352 410 L404 430 Z" fill="#0d2b48"/>
<path d="M840 430 L936 386 L1022 412 L1096 430 Z" fill="#0a2440"/>
<g fill="#ffffff" opacity="0.18">
<rect x="150" y="470" width="240" height="4"/><rect x="520" y="510" width="330" height="4"/>
<rect x="260" y="566" width="420" height="5"/><rect x="700" y="612" width="320" height="5"/>
</g>
<g fill="#12283f">
<g transform="translate(250,214) scale(2.3)">
<path d="M6 14 C6 9 12 7 22 7 L54 7 C66 7 76 10 78 14 C76 18 66 21 54 21 L20 21 C11 21 6 19 6 14 Z"/>
<path d="M10 7 L18 -9 L25 -9 L22 7 Z"/><path d="M28 14 L44 33 L55 33 L42 14 Z"/><path d="M34 7 L41 1 L50 1 L53 7 Z"/>
</g>
<g transform="translate(596,116) scale(1.55)">
<path d="M6 14 C6 9 12 7 22 7 L54 7 C66 7 76 10 78 14 C76 18 66 21 54 21 L20 21 C11 21 6 19 6 14 Z"/>
<path d="M10 7 L18 -9 L25 -9 L22 7 Z"/><path d="M28 14 L44 33 L55 33 L42 14 Z"/><path d="M34 7 L41 1 L50 1 L53 7 Z"/>
</g>
<g transform="translate(700,296) scale(1.15)">
<path d="M6 14 C6 9 12 7 22 7 L54 7 C66 7 76 10 78 14 C76 18 66 21 54 21 L20 21 C11 21 6 19 6 14 Z"/>
<path d="M10 7 L18 -9 L25 -9 L22 7 Z"/><path d="M28 14 L44 33 L55 33 L42 14 Z"/><path d="M34 7 L41 1 L50 1 L53 7 Z"/>
</g>
</g>
</svg>
